<?xml version="1.0" encoding="UTF-8"?>
<svg id="Layer_1" data-name="Layer 1" xmlns="http://www.w3.org/2000/svg" viewBox="0 0 723 304">
  <defs>
    <style>
      .cls-1 {
        fill: #352727;
        stroke: #352727;
      }

      .cls-1, .cls-2 {
        stroke-width: .71px;
      }

      .cls-1, .cls-2, .cls-3, .cls-4 {
        stroke-miterlimit: 10;
      }

      .cls-2, .cls-3 {
        fill: #099999;
      }

      .cls-2, .cls-3, .cls-5 {
        stroke: #099999;
      }

      .cls-3, .cls-4 {
        stroke-width: .28px;
      }

      .cls-4 {
        fill: #7dc2b0;
        stroke: #7dc2b0;
      }

      .cls-5 {
        fill: none;
        stroke-linecap: round;
        stroke-linejoin: round;
        stroke-width: 7px;
      }
    </style>
  </defs>
  <line class="cls-5" x1="50.95" y1="105.77" x2="65.77" y2="105.77"/>
  <line class="cls-5" x1="50.95" y1="105.77" x2="65.77" y2="105.77"/>
  <line class="cls-5" x1="50.95" y1="105.77" x2="65.77" y2="105.77"/>
  <line class="cls-5" x1="50.95" y1="105.77" x2="65.77" y2="105.77"/>
  <line class="cls-5" x1="50.95" y1="105.77" x2="65.77" y2="105.77"/>
  <line class="cls-5" x1="50.95" y1="105.77" x2="65.77" y2="105.77"/>
  <line class="cls-5" x1="50.95" y1="105.77" x2="65.77" y2="105.77"/>
  <line class="cls-5" x1="50.95" y1="105.77" x2="65.77" y2="105.77"/>
  <line class="cls-5" x1="50.95" y1="105.77" x2="65.77" y2="105.77"/>
  <line class="cls-5" x1="50.95" y1="105.77" x2="65.77" y2="105.77"/>
  <line class="cls-5" x1="50.95" y1="105.77" x2="65.77" y2="105.77"/>
  <line class="cls-5" x1="50.95" y1="105.77" x2="65.77" y2="105.77"/>
  <line class="cls-5" x1="50.95" y1="105.77" x2="65.77" y2="105.77"/>
  <line class="cls-5" x1="50.95" y1="105.77" x2="65.77" y2="105.77"/>
  <line class="cls-5" x1="50.95" y1="105.77" x2="65.77" y2="105.77"/>
  <line class="cls-5" x1="50.95" y1="105.77" x2="65.77" y2="105.77"/>
  <line class="cls-5" x1="50.95" y1="105.77" x2="65.77" y2="105.77"/>
  <line class="cls-5" x1="50.95" y1="105.77" x2="65.77" y2="105.77"/>
  <line class="cls-5" x1="50.95" y1="105.77" x2="65.77" y2="105.77"/>
  <line class="cls-5" x1="50.95" y1="105.77" x2="65.77" y2="105.77"/>
  <line class="cls-5" x1="50.95" y1="105.77" x2="65.77" y2="105.77"/>
  <line class="cls-5" x1="50.95" y1="105.77" x2="65.77" y2="105.77"/>
  <line class="cls-5" x1="50.95" y1="105.77" x2="65.77" y2="105.77"/>
  <line class="cls-5" x1="50.95" y1="105.77" x2="65.77" y2="105.77"/>
  <line class="cls-5" x1="50.95" y1="105.77" x2="65.77" y2="105.77"/>
  <line class="cls-5" x1="50.95" y1="105.77" x2="65.77" y2="105.77"/>
  <line class="cls-5" x1="50.95" y1="105.77" x2="65.77" y2="105.77"/>
  <line class="cls-5" x1="50.95" y1="105.77" x2="65.77" y2="105.77"/>
  <line class="cls-5" x1="50.95" y1="105.77" x2="65.77" y2="105.77"/>
  <line class="cls-5" x1="50.95" y1="105.77" x2="65.77" y2="105.77"/>
  <line class="cls-5" x1="129.03" y1="34.52" x2="129.03" y2="19.55"/>
  <line class="cls-5" x1="73.1" y1="69.77" x2="59.77" y2="63.21"/>
  <line class="cls-5" x1="195.48" y1="144.43" x2="182.76" y2="136.74"/>
  <line class="cls-5" x1="62.5" y1="144.43" x2="75.22" y2="136.74"/>
  <line class="cls-5" x1="129.03" y1="34.52" x2="129.03" y2="19.55"/>
  <line class="cls-5" x1="73.1" y1="69.77" x2="59.77" y2="63.21"/>
  <line class="cls-5" x1="62.5" y1="144.43" x2="75.22" y2="136.74"/>
  <line class="cls-5" x1="129.03" y1="34.52" x2="129.03" y2="19.55"/>
  <line class="cls-5" x1="73.1" y1="69.77" x2="59.77" y2="63.21"/>
  <line class="cls-5" x1="62.5" y1="144.43" x2="75.22" y2="136.74"/>
  <line class="cls-5" x1="193.46" y1="105.1" x2="208.29" y2="105.1"/>
  <line class="cls-5" x1="129.03" y1="34.52" x2="129.03" y2="19.55"/>
  <line class="cls-5" x1="73.1" y1="69.77" x2="59.77" y2="63.21"/>
  <line class="cls-5" x1="62.5" y1="144.43" x2="75.22" y2="136.74"/>
  <line class="cls-5" x1="129.03" y1="34.52" x2="129.03" y2="19.55"/>
  <line class="cls-5" x1="73.1" y1="69.77" x2="59.77" y2="63.21"/>
  <line class="cls-5" x1="62.5" y1="144.43" x2="75.22" y2="136.74"/>
  <line class="cls-5" x1="88.76" y1="30.6" x2="96.62" y2="43.3"/>
  <line class="cls-5" x1="129.03" y1="34.52" x2="129.03" y2="19.55"/>
  <line class="cls-5" x1="162.59" y1="43.79" x2="170.97" y2="31.44"/>
  <line class="cls-5" x1="73.1" y1="69.77" x2="59.77" y2="63.21"/>
  <line class="cls-5" x1="184.87" y1="69.1" x2="198.19" y2="62.55"/>
  <line class="cls-5" x1="62.5" y1="144.43" x2="75.22" y2="136.74"/>
  <line class="cls-5" x1="129.03" y1="34.52" x2="129.03" y2="19.55"/>
  <line class="cls-5" x1="73.1" y1="69.77" x2="59.77" y2="63.21"/>
  <line class="cls-5" x1="195.48" y1="144.43" x2="182.76" y2="136.74"/>
  <line class="cls-5" x1="62.5" y1="144.43" x2="75.22" y2="136.74"/>
  <line class="cls-5" x1="129.03" y1="34.52" x2="129.03" y2="19.55"/>
  <line class="cls-5" x1="73.1" y1="69.77" x2="59.77" y2="63.21"/>
  <line class="cls-5" x1="62.5" y1="144.43" x2="75.22" y2="136.74"/>
  <line class="cls-5" x1="129.03" y1="34.52" x2="129.03" y2="19.55"/>
  <line class="cls-5" x1="73.1" y1="69.77" x2="59.77" y2="63.21"/>
  <line class="cls-5" x1="62.5" y1="144.43" x2="75.22" y2="136.74"/>
  <line class="cls-5" x1="193.46" y1="105.1" x2="208.29" y2="105.1"/>
  <line class="cls-5" x1="129.03" y1="34.52" x2="129.03" y2="19.55"/>
  <line class="cls-5" x1="73.1" y1="69.77" x2="59.77" y2="63.21"/>
  <line class="cls-5" x1="62.5" y1="144.43" x2="75.22" y2="136.74"/>
  <line class="cls-5" x1="129.03" y1="34.52" x2="129.03" y2="19.55"/>
  <line class="cls-5" x1="73.1" y1="69.77" x2="59.77" y2="63.21"/>
  <line class="cls-5" x1="62.5" y1="144.43" x2="75.22" y2="136.74"/>
  <line class="cls-5" x1="88.76" y1="30.6" x2="96.62" y2="43.3"/>
  <line class="cls-5" x1="129.03" y1="34.52" x2="129.03" y2="19.55"/>
  <line class="cls-5" x1="162.59" y1="43.79" x2="170.97" y2="31.44"/>
  <line class="cls-5" x1="73.1" y1="69.77" x2="59.77" y2="63.21"/>
  <line class="cls-5" x1="184.87" y1="69.1" x2="198.19" y2="62.55"/>
  <line class="cls-5" x1="62.5" y1="144.43" x2="75.22" y2="136.74"/>
  <line class="cls-5" x1="129.03" y1="34.52" x2="129.03" y2="19.55"/>
  <line class="cls-5" x1="73.1" y1="69.77" x2="59.77" y2="63.21"/>
  <line class="cls-5" x1="195.48" y1="144.43" x2="182.76" y2="136.74"/>
  <line class="cls-5" x1="62.5" y1="144.43" x2="75.22" y2="136.74"/>
  <line class="cls-5" x1="129.03" y1="34.52" x2="129.03" y2="19.55"/>
  <line class="cls-5" x1="73.1" y1="69.77" x2="59.77" y2="63.21"/>
  <line class="cls-5" x1="62.5" y1="144.43" x2="75.22" y2="136.74"/>
  <line class="cls-5" x1="129.03" y1="34.52" x2="129.03" y2="19.55"/>
  <line class="cls-5" x1="73.1" y1="69.77" x2="59.77" y2="63.21"/>
  <line class="cls-5" x1="62.5" y1="144.43" x2="75.22" y2="136.74"/>
  <line class="cls-5" x1="193.46" y1="105.1" x2="208.29" y2="105.1"/>
  <line class="cls-5" x1="129.03" y1="34.52" x2="129.03" y2="19.55"/>
  <line class="cls-5" x1="73.1" y1="69.77" x2="59.77" y2="63.21"/>
  <line class="cls-5" x1="62.5" y1="144.43" x2="75.22" y2="136.74"/>
  <line class="cls-5" x1="129.03" y1="34.52" x2="129.03" y2="19.55"/>
  <line class="cls-5" x1="73.1" y1="69.77" x2="59.77" y2="63.21"/>
  <line class="cls-5" x1="62.5" y1="144.43" x2="75.22" y2="136.74"/>
  <line class="cls-5" x1="88.76" y1="30.6" x2="96.62" y2="43.3"/>
  <line class="cls-5" x1="129.03" y1="34.52" x2="129.03" y2="19.55"/>
  <line class="cls-5" x1="162.59" y1="43.79" x2="170.97" y2="31.44"/>
  <line class="cls-5" x1="73.1" y1="69.77" x2="59.77" y2="63.21"/>
  <line class="cls-5" x1="184.87" y1="69.1" x2="198.19" y2="62.55"/>
  <line class="cls-5" x1="62.5" y1="144.43" x2="75.22" y2="136.74"/>
  <line class="cls-5" x1="195.48" y1="144.43" x2="182.76" y2="136.74"/>
  <line class="cls-5" x1="193.46" y1="105.1" x2="208.29" y2="105.1"/>
  <line class="cls-5" x1="193.46" y1="105.1" x2="208.29" y2="105.1"/>
  <line class="cls-5" x1="184.87" y1="69.1" x2="198.19" y2="62.55"/>
  <line class="cls-5" x1="184.87" y1="69.1" x2="198.19" y2="62.55"/>
  <line class="cls-5" x1="162.59" y1="43.79" x2="170.97" y2="31.44"/>
  <line class="cls-5" x1="162.59" y1="43.79" x2="170.97" y2="31.44"/>
  <line class="cls-5" x1="129.03" y1="34.52" x2="129.03" y2="19.55"/>
  <line class="cls-5" x1="129.03" y1="34.52" x2="129.03" y2="19.55"/>
  <line class="cls-5" x1="88.76" y1="30.6" x2="96.62" y2="43.3"/>
  <line class="cls-5" x1="88.76" y1="30.6" x2="96.62" y2="43.3"/>
  <line class="cls-5" x1="73.1" y1="69.77" x2="59.77" y2="63.21"/>
  <line class="cls-5" x1="73.1" y1="69.77" x2="59.77" y2="63.21"/>
  <line class="cls-5" x1="73.1" y1="69.77" x2="59.77" y2="63.21"/>
  <line class="cls-5" x1="73.1" y1="69.77" x2="59.77" y2="63.21"/>
  <line class="cls-5" x1="73.1" y1="69.77" x2="59.77" y2="63.21"/>
  <line class="cls-5" x1="73.1" y1="69.77" x2="59.77" y2="63.21"/>
  <line class="cls-5" x1="62.5" y1="144.43" x2="75.22" y2="136.74"/>
  <line class="cls-5" x1="62.5" y1="144.43" x2="75.22" y2="136.74"/>
  <path class="cls-4" d="M165.01,59.55c-19.07-17.13-47.34-18.13-66.35-4.22-14.78,10.79-23.23,25.23-23.99,43.71-.65,18.13,6.34,32.85,20.47,44.12,1.88,1.53,3.99,2.76,5.98,4.17,3.46,2.46,4.81,6.39,3.7,10.62-.82.06-1.64.06-2.46.12-2.46.29-4.11,2.41-3.87,4.93.18,2.05,1.88,3.87,4.05,4.34.76.18,1.58.29,2.46.47v2.23c0,3.52,0,6.98.06,10.5,0,2.64,1.52,4.93,3.87,5.63,1.06.29,2.17.35,3.29.35h27.87c2.58,0,5.22.06,7.86-.06,1.11,0,2.35-.18,3.34-.65,2.17-1.11,3.23-3.05,3.17-5.57v-10.27c0-.76.12-1.47.18-2.17.94-.18,1.76-.18,2.46-.35,2.46-.53,4.17-2.82,3.99-5.22-.23-2.35-2.11-4.05-4.75-4.17h-2.11c-.12-.53-.18-.94-.18-1.29-.35-4.99,1.47-8.45,5.81-11.26,14.73-9.45,22.94-23.17,23.94-40.71,1-18.01-5.4-33.26-18.77-45.23ZM145.41,177c-10.44.23-20.83.35-31.44.18v-8.45c10.5-.12,20.88,0,31.44-.06v8.33ZM163.77,130.36c-2.87,3.29-6.34,5.98-9.91,8.51-3.64,2.52-6.51,5.69-7.69,10.09-.53,1.88-.59,3.93-.76,5.92-.12,1,0,2.05,0,3.17h-10.62l-10.38-.06c-.53.06-1,.18-1.41.18h-8.98c-.06-.65-.18-1.29-.12-1.94.18-7.74-3.05-13.55-9.5-17.66-5.28-3.34-9.62-7.69-13.14-12.91-4.58-6.75-7.04-14.2-7.27-22.35-.53-18.19,7.16-32.09,22.18-41.89,7.74-5.1,16.54-6.92,25.7-6.22,16.07,1.23,28.28,9.15,36.55,22.94,9.15,15.31,8.92,36.96-4.63,52.21Z"/>
  <path class="cls-4" d="M174.32,258.47c-2.62-.03-5.27-.2-7.84-.68-11.22-2.12-20.07-7.88-26.01-17.85-1.93-3.24-3.37-6.71-3.4-10.58-.04-5.05-.02-10.1,0-15.15,0-.5.08-.99.13-1.55,1.9,0,3.68.02,5.46,0,8.54-.14,13.64-8.88,12.09-15.59-1.17-5.04-4.78-7.93-9.87-7.87-3.72.04-7.44.03-11.15.04-7.12.01-14.23.06-21.34.02-1.71,0-3.1.5-4.35,1.66-3.38,3.15-4.48,7.05-3.45,11.46,1.4,6,6.58,10.04,12.91,10.24,2.56.08,5.13,0,7.69,0,.68,0,1.36.06,2.24.11v2.27c0,4.4-.06,8.8.02,13.2.03,1.86.21,3.76.61,5.57,1.64,7.32,5.29,13.6,10.39,18.95,9.58,10.06,21.42,15.1,35.18,15.42,6.26.15,12.53.09,18.79.05v.08h35.47v-9.61s-45.88-.13-53.57-.2ZM118.38,202.95c-.57,0-1.15-.06-1.72-.17-1.12-.22-1.77-1.02-2.1-2.05-.42-1.3.33-2.49,1.68-2.7.57-.09,1.15-.08,1.72-.08,3.9,0,7.81,0,11.71,0v.03h11.71c.32,0,.64,0,.96,0,1.54.07,2.38.7,2.49,1.86.12,1.25-.82,2.57-2.1,2.85-.68.15-1.4.22-2.1.22-7.42.03-14.85.03-22.27.03Z"/>
  <path class="cls-3" d="M146.41,108.25c-.35.41-.7.82-1.06,1.17-3.05,3.23-6.04,6.45-9.21,9.62-1.06,1-1.53,2.05-1.47,3.52v33.97c0,.53.12,1,.12,1.53l-10.38-.06c.06-.7.12-1.35.12-1.99v-9.09c0-8.39-.06-16.72-.06-25.05,0-1.17-.35-1.94-1.17-2.7-1.47-1.41-2.93-2.87-4.4-4.34-2.05-2.11-4.11-4.22-6.1-6.39-1.99-2.17-1.35-5.34.23-6.86,2.11-1.99,4.99-2.23,7.1-.41,1,.82,1.88,1.76,2.82,2.7l6.75,6.75c2.23-2.17,4.34-4.28,6.39-6.34,1.06-1,1.99-2.05,2.99-3.05,1.76-1.88,5.16-1.58,6.92.23,1.99,1.99,2.17,4.58.41,6.81Z"/>
  <g>
    <path class="cls-2" d="M244.76,211.84v44.63h6.36c4.24,0,7.26.69,9.06,2.08,1.8,1.39,2.71,3.2,2.71,5.44s-.9,3.98-2.71,5.37c-1.8,1.39-4.83,2.08-9.06,2.08h-23.11c-4.24,0-7.26-.69-9.06-2.08-1.8-1.39-2.71-3.2-2.71-5.44s.89-3.98,2.66-5.37c1.77-1.39,4.52-2.08,8.25-2.08v-58.58c-3.09-.24-5.43-1.05-7-2.41-1.57-1.36-2.36-3.07-2.36-5.11,0-2.24.9-4.05,2.71-5.44,1.8-1.39,4.82-2.08,9.06-2.08l19.33.07,23.97,45.07,23.54-45.14,19.5.07c4.24,0,7.26.68,9.06,2.05,1.8,1.36,2.71,3.17,2.71,5.4,0,2.05-.8,3.75-2.41,5.11-1.6,1.36-3.92,2.17-6.96,2.41v58.58c3.72,0,6.47.71,8.25,2.12,1.77,1.41,2.66,3.21,2.66,5.41s-.9,3.98-2.71,5.37c-1.8,1.39-4.83,2.08-9.06,2.08h-23.19c-4.18,0-7.17-.69-8.98-2.08-1.8-1.39-2.71-3.2-2.71-5.44s.9-3.98,2.71-5.37c1.8-1.39,4.8-2.08,8.98-2.08h6.44v-44.63l-20.19,38.57h-15.29l-20.44-38.57Z"/>
    <path class="cls-2" d="M381.35,197.89v58.58h17.78c4.24,0,7.26.69,9.06,2.08,1.8,1.39,2.71,3.2,2.71,5.44s-.9,3.98-2.71,5.37c-1.8,1.39-4.83,2.08-9.06,2.08h-53.17c-4.24,0-7.26-.69-9.06-2.08-1.8-1.39-2.71-3.2-2.71-5.44s.9-3.98,2.71-5.37c1.8-1.39,4.82-2.08,9.06-2.08h17.78v-58.58h-17.78c-4.24,0-7.26-.69-9.06-2.08-1.8-1.39-2.71-3.2-2.71-5.44s.9-4.05,2.71-5.44c1.8-1.39,4.82-2.08,9.06-2.08l53.17.07c4.24,0,7.26.68,9.06,2.05,1.8,1.36,2.71,3.17,2.71,5.4s-.9,4.05-2.71,5.44c-1.8,1.39-4.83,2.08-9.06,2.08h-17.78Z"/>
    <path class="cls-2" d="M446.17,211.19v45.29h6.36c4.24,0,7.26.69,9.06,2.08,1.8,1.39,2.71,3.2,2.71,5.44s-.9,3.98-2.71,5.37c-1.8,1.39-4.83,2.08-9.06,2.08h-23.11c-4.24,0-7.26-.69-9.06-2.08-1.8-1.39-2.71-3.2-2.71-5.44s.89-3.92,2.66-5.33c1.77-1.41,4.52-2.12,8.25-2.12v-58.58h-2.75c-4.24,0-7.26-.69-9.06-2.08-1.8-1.39-2.71-3.2-2.71-5.44s.9-4.05,2.71-5.44c1.8-1.39,4.82-2.08,9.06-2.08l20.36.07,45.01,60.04v-45.07h-6.36c-4.24,0-7.26-.69-9.06-2.08-1.8-1.39-2.71-3.2-2.71-5.44s.9-4.05,2.71-5.44c1.8-1.39,4.82-2.08,9.06-2.08l23.11.07c4.24,0,7.26.68,9.06,2.05,1.8,1.36,2.71,3.17,2.71,5.4s-.89,3.99-2.66,5.41c-1.78,1.41-4.5,2.12-8.16,2.12v73.55h-17.44l-45.27-60.26Z"/>
    <path class="cls-2" d="M533.67,256.47v-58.58c-3.72-.05-6.47-.77-8.25-2.15-1.78-1.39-2.66-3.18-2.66-5.37s.9-4.05,2.71-5.44c1.8-1.39,4.82-2.08,9.06-2.08l36.85.07c5.73,0,11.32.9,16.79,2.7,5.47,1.8,9.86,4.09,13.19,6.87,2.52,2.09,5.14,4.97,7.86,8.62,2.72,3.65,4.77,7.28,6.14,10.88,1.37,3.6,2.06,8.01,2.06,13.22v7.16c0,6.33-1.26,11.94-3.78,16.84-2.52,4.89-5.83,8.89-9.92,11.98-4.09,3.09-7.95,5.37-11.55,6.83-5.73,2.29-13.14,3.43-22.25,3.43h-35.39c-4.24,0-7.26-.69-9.06-2.08-1.8-1.39-2.71-3.2-2.71-5.44s.9-3.99,2.71-5.41c1.8-1.41,4.54-2.09,8.2-2.05ZM551.28,256.47h18.73c6.99,0,12.25-.85,15.81-2.56,4.64-2.24,8.13-5.09,10.48-8.55,2.35-3.46,3.52-7.94,3.52-13.44v-7.08c0-4.72-1.06-8.86-3.18-12.42-3.32-5.55-7.06-9.36-11.21-11.43-4.15-2.07-9.35-3.1-15.59-3.1h-18.55v58.58Z"/>
    <path class="cls-2" d="M635.1,265.46c-1.55,1.56-2.79,2.56-3.74,2.99-.95.44-2.1.66-3.48.66-2.69,0-4.85-.77-6.49-2.3-1.63-1.53-2.45-4.08-2.45-7.63v-10.08c0-3.6.82-6.17,2.45-7.71,1.63-1.53,3.79-2.3,6.49-2.3,2.06,0,3.79.46,5.2,1.39,1.4.93,2.48,2.47,3.22,4.64.74,2.17,1.52,3.64,2.32,4.42,1.66,1.51,4.61,3.04,8.85,4.6,4.24,1.56,8.88,2.34,13.92,2.34,7.85,0,14.29-1.56,19.33-4.67,3.21-1.9,4.81-4.24,4.81-7.01,0-1.85-.77-3.59-2.32-5.22-1.55-1.63-4.07-2.98-7.56-4.05-2.29-.73-7.42-1.73-15.38-2.99-9.62-1.51-16.89-3.33-21.82-5.48-4.93-2.14-8.82-5.16-11.68-9.06-2.86-3.9-4.29-8.11-4.29-12.64,0-7.16,3.52-13.43,10.57-18.81,7.04-5.38,16.21-8.07,27.49-8.07,4.52,0,8.72.43,12.58,1.28,3.87.85,7.37,2.15,10.52,3.91,2.29-1.9,4.58-2.85,6.87-2.85,2.58,0,4.68.77,6.31,2.3,1.63,1.53,2.45,4.08,2.45,7.63v11.25c0,3.6-.82,6.17-2.45,7.71-1.63,1.53-3.74,2.3-6.31,2.3-2.18,0-4.07-.56-5.67-1.68-1.26-.83-2.21-2.48-2.83-4.97-.63-2.48-1.43-4.26-2.41-5.33-1.66-1.85-4.15-3.41-7.47-4.67-3.32-1.27-7.16-1.9-11.51-1.9-6.36,0-11.38,1.25-15.07,3.76-3.69,2.51-5.54,5.13-5.54,7.85,0,1.85.76,3.64,2.28,5.37,1.52,1.73,3.74,3.08,6.66,4.05,1.95.68,7.43,1.78,16.45,3.29,9.02,1.51,15.95,3.17,20.79,4.97,4.84,1.8,8.86,4.63,12.07,8.47,3.21,3.85,4.81,8.43,4.81,13.73,0,7.4-3.06,13.32-9.19,17.75-8.13,5.84-18.5,8.77-31.09,8.77-4.87,0-9.61-.5-14.22-1.5-4.61-1-9.09-2.5-13.44-4.49Z"/>
  </g>
  <path class="cls-1" d="M482.87,114.87v18.03c0,10.69-3.63,20.92-10.89,30.69-7.26,9.78-17.64,14.67-31.15,14.67-7.79,0-14.37-1.46-19.74-4.37-5.37-2.91-10.46-8.28-15.27-16.11-4.81-7.83-7.21-16.12-7.21-24.88v-18.03c0-10.63,3.61-20.85,10.84-30.65,7.22-9.8,17.59-14.71,31.1-14.71,7.73,0,14.28,1.44,19.65,4.33,5.37,2.88,10.49,8.24,15.36,16.07,4.87,7.83,7.3,16.15,7.3,24.96ZM463.46,114.87c0-8.92-2.92-16.72-8.76-23.4-3.33-3.69-8.01-5.53-14.04-5.53s-10.62,2.03-14.32,6.09c-5.59,6.14-8.39,13.76-8.39,22.84v18.03c0,8.98,2.95,16.78,8.86,23.4,3.27,3.69,7.95,5.53,14.04,5.53,5.78,0,10.52-2.03,14.23-6.09,5.59-6.14,8.39-13.76,8.39-22.84v-18.03Z"/>
  <path class="cls-1" d="M387.5,114.87v18.03c0,10.69-3.63,20.92-10.89,30.69-7.26,9.78-17.64,14.67-31.15,14.67-7.79,0-14.37-1.46-19.74-4.37-5.37-2.91-10.46-8.28-15.27-16.11-4.81-7.83-7.21-16.12-7.21-24.88v-18.03c0-10.63,3.61-20.85,10.84-30.65,7.22-9.8,17.59-14.71,31.1-14.71,7.73,0,14.28,1.44,19.65,4.33,5.37,2.88,10.49,8.24,15.36,16.07,4.87,7.83,7.3,16.15,7.3,24.96ZM368.08,114.87c0-8.92-2.92-16.72-8.76-23.4-3.33-3.69-8.01-5.53-14.04-5.53s-10.62,2.03-14.32,6.09c-5.59,6.14-8.39,13.76-8.39,22.84v18.03c0,8.98,2.95,16.78,8.86,23.4,3.27,3.69,7.95,5.53,14.04,5.53,5.78,0,10.52-2.03,14.23-6.09,5.59-6.14,8.39-13.76,8.39-22.84v-18.03Z"/>
  <path class="cls-1" d="M271.57,71.91v89.92h19.51c4.65,0,7.96.76,9.94,2.28,1.98,1.52,2.97,3.51,2.97,5.97s-.99,4.37-2.97,5.89c-1.98,1.52-5.29,2.28-9.94,2.28h-58.34c-4.65,0-7.96-.76-9.94-2.28-1.98-1.52-2.97-3.51-2.97-5.97s.99-4.37,2.97-5.89c1.98-1.52,5.29-2.28,9.94-2.28h19.51v-68.52l-17.25,3.85c-2.77.64-4.84.96-6.22.96-2.45,0-4.57-.83-6.36-2.48-1.79-1.66-2.69-3.69-2.69-6.09,0-2.19.66-3.91,1.98-5.17,1.32-1.25,4.08-2.36,8.29-3.33l41.56-9.14Z"/>
</svg>