<svg width="71" height="36" viewBox="0 0 71 36" fill="none" xmlns="http://www.w3.org/2000/svg">
<path d="M0.968 1.4H6.248V30.2H14.936V35H0.968V1.4ZM24.9125 35.48C22.3205 35.48 20.3365 34.744 18.9605 33.272C17.5845 31.8 16.8965 29.72 16.8965 27.032V9.368C16.8965 6.68 17.5845 4.6 18.9605 3.128C20.3365 1.656 22.3205 0.919998 24.9125 0.919998C27.5045 0.919998 29.4885 1.656 30.8645 3.128C32.2405 4.6 32.9285 6.68 32.9285 9.368V27.032C32.9285 29.72 32.2405 31.8 30.8645 33.272C29.4885 34.744 27.5045 35.48 24.9125 35.48ZM24.9125 30.68C26.7365 30.68 27.6485 29.576 27.6485 27.368V9.032C27.6485 6.824 26.7365 5.72 24.9125 5.72C23.0885 5.72 22.1765 6.824 22.1765 9.032V27.368C22.1765 29.576 23.0885 30.68 24.9125 30.68ZM43.9873 35.48C41.4273 35.48 39.4753 34.76 38.1313 33.32C36.7873 31.848 36.1152 29.752 36.1152 27.032V9.368C36.1152 6.648 36.7873 4.568 38.1313 3.128C39.4753 1.656 41.4273 0.919998 43.9873 0.919998C46.5473 0.919998 48.4993 1.656 49.8433 3.128C51.1873 4.568 51.8593 6.648 51.8593 9.368V12.248H46.8672V9.032C46.8672 6.824 45.9553 5.72 44.1313 5.72C42.3073 5.72 41.3953 6.824 41.3953 9.032V27.416C41.3953 29.592 42.3073 30.68 44.1313 30.68C45.9553 30.68 46.8672 29.592 46.8672 27.416V20.84H44.2273V16.04H51.8593V27.032C51.8593 29.752 51.1873 31.848 49.8433 33.32C48.4993 34.76 46.5473 35.48 43.9873 35.48ZM62.8813 35.48C60.2893 35.48 58.3053 34.744 56.9293 33.272C55.5533 31.8 54.8652 29.72 54.8652 27.032V9.368C54.8652 6.68 55.5533 4.6 56.9293 3.128C58.3053 1.656 60.2893 0.919998 62.8813 0.919998C65.4733 0.919998 67.4573 1.656 68.8333 3.128C70.2093 4.6 70.8973 6.68 70.8973 9.368V27.032C70.8973 29.72 70.2093 31.8 68.8333 33.272C67.4573 34.744 65.4733 35.48 62.8813 35.48ZM62.8813 30.68C64.7053 30.68 65.6172 29.576 65.6172 27.368V9.032C65.6172 6.824 64.7053 5.72 62.8813 5.72C61.0573 5.72 60.1453 6.824 60.1453 9.032V27.368C60.1453 29.576 61.0573 30.68 62.8813 30.68Z" fill="black"/>
</svg>
